<?xml version="1.0" standalone="no"?>
<!DOCTYPE svg PUBLIC "-//W3C//DTD SVG 20010904//EN"
 "http://www.w3.org/TR/2001/REC-SVG-20010904/DTD/svg10.dtd">
<svg version="1.0" xmlns="http://www.w3.org/2000/svg"
 width="369.000000pt" height="369.000000pt" viewBox="0 0 369.000000 369.000000"
 preserveAspectRatio="xMidYMid meet">
<metadata>
Created by potrace 1.11, written by Peter Selinger 2001-2013
</metadata>
<g transform="translate(0.000000,369.000000) scale(0.100000,-0.100000)"
fill="#000000" stroke="none">
<path d="M1849 3606 c-7 -7 -147 -18 -251 -20 -42 0 -79 -4 -83 -8 -4 -4 -45
-4 -91 -1 -59 4 -84 2 -84 -6 0 -6 -10 -11 -22 -11 -47 -1 -166 -49 -231 -95
-16 -11 -15 -13 12 -17 16 -2 28 -1 25 4 -6 9 12 10 43 2 22 -6 22 -7 -12 -38
-19 -18 -35 -37 -35 -43 0 -6 -10 -13 -21 -16 -17 -5 -20 -11 -15 -30 4 -16 1
-29 -9 -37 -8 -7 -12 -17 -9 -22 4 -6 -6 -21 -21 -34 -15 -13 -25 -29 -22 -37
8 -22 -52 -75 -72 -63 -11 7 -71 -59 -72 -81 -1 -13 -3 -11 -8 7 -7 21 -11 14
-31 -50 -25 -83 -125 -279 -143 -281 -7 -1 -15 -1 -19 0 -4 0 -67 7 -140 16
-73 8 -191 21 -263 29 -72 9 -163 18 -202 22 l-73 6 0 -46 c0 -55 -15 -50 215
-71 94 -9 206 -20 249 -25 55 -7 82 -7 86 0 4 7 11 5 20 -5 14 -16 45 -21 35
-5 -8 12 5 13 24 1 8 -5 15 -35 19 -77 3 -38 10 -78 17 -89 7 -11 10 -38 9
-60 -8 -87 -12 -114 -20 -127 -18 -28 -31 -305 -15 -321 6 -6 11 -18 11 -27 0
-9 8 -25 18 -36 19 -20 26 -42 41 -123 5 -24 17 -51 28 -60 13 -10 23 -34 27
-61 12 -83 35 -139 57 -137 14 1 19 9 19 29 0 15 4 28 10 28 5 0 17 11 26 24
14 23 14 31 -1 105 -23 113 -12 235 27 309 15 30 28 62 28 71 0 9 5 22 11 28
6 6 15 43 20 82 4 39 14 81 21 94 7 12 11 25 10 30 -1 4 2 7 8 7 5 0 17 26 26
58 11 38 35 83 75 135 32 43 59 85 59 95 0 9 14 31 30 49 17 18 30 35 30 38 0
8 80 85 106 102 72 47 145 59 169 27 9 -11 14 -14 15 -6 0 7 14 19 31 26 25
11 37 11 67 0 45 -16 72 -17 72 -4 0 6 9 10 19 10 11 0 23 -4 26 -10 3 -5 22
-10 41 -10 19 0 34 -4 34 -10 0 -5 9 -10 20 -10 11 0 20 5 20 10 0 12 48 2 69
-14 12 -9 13 -6 8 19 -3 17 -4 24 -1 17 3 -6 10 -10 15 -6 19 12 30 -8 14 -26
-14 -16 -14 -18 0 -23 23 -10 20 -74 -5 -87 -11 -6 -20 -17 -20 -25 0 -20 39
-19 46 0 9 23 44 40 44 21 0 -8 -6 -21 -14 -28 -11 -11 -10 -16 7 -31 18 -15
19 -21 9 -38 -16 -25 -6 -45 15 -28 12 10 16 10 23 -2 10 -14 13 -16 55 -18
18 -1 25 -7 25 -21 0 -27 29 -40 88 -40 52 0 68 -10 70 -47 1 -18 -5 -23 -24
-23 -19 0 -24 5 -24 26 0 16 -5 24 -12 21 -7 -2 -13 -15 -13 -28 0 -42 -36
-36 -68 11 -14 20 -17 21 -17 6 0 -26 -54 -73 -94 -80 -25 -5 -36 -13 -39 -29
-3 -19 -6 -16 -21 18 -19 42 -34 57 -51 51 -6 -2 -9 14 -7 40 4 40 3 42 -20
37 -12 -3 -32 -16 -43 -28 -11 -12 -28 -24 -38 -28 -9 -4 -20 -15 -23 -24 -26
-78 -22 -75 -109 -72 -44 1 -91 -1 -105 -4 -25 -6 -169 -16 -287 -20 -35 -1
-63 -5 -63 -9 0 -4 -31 -31 -69 -58 -71 -52 -116 -110 -84 -110 9 0 13 -6 9
-15 -3 -8 -2 -15 3 -15 20 0 93 38 106 56 11 14 14 15 9 3 -7 -23 24 -29 93
-20 59 8 123 -2 123 -20 0 -12 -103 -59 -131 -59 -26 0 -64 -20 -113 -59 -21
-17 -48 -31 -60 -31 -44 -1 13 -27 74 -34 33 -4 62 -11 65 -16 4 -7 13 -7 24
0 10 5 21 6 25 3 3 -3 6 3 6 14 0 11 6 26 14 32 12 10 17 8 26 -9 12 -22 5
-60 -10 -60 -5 0 -7 -7 -3 -16 3 -8 11 -13 18 -10 14 5 25 -14 25 -45 0 -19
-7 -22 -84 -34 -21 -3 -35 -9 -32 -13 14 -13 230 -19 281 -7 58 13 115 37 115
47 0 4 16 18 35 31 49 34 92 91 99 134 18 102 44 116 104 55 65 -68 91 -140
88 -249 -1 -35 2 -63 5 -63 4 0 3 -17 -2 -37 -4 -21 -8 -39 -9 -40 0 -2 0 -14
0 -27 0 -14 -6 -31 -14 -38 -7 -8 -17 -30 -21 -49 -4 -19 -12 -40 -18 -47 -6
-8 -13 -32 -16 -55 -5 -35 -10 -43 -30 -45 -36 -6 -46 13 -17 32 33 21 33 46
-1 77 -25 21 -36 24 -103 21 -64 -2 -78 -6 -101 -28 -30 -28 -45 -25 -59 12
-10 25 5 129 21 150 28 35 -54 15 -88 -22 -12 -13 -27 -24 -32 -24 -9 0 -51
-33 -74 -59 -5 -5 -18 -18 -29 -29 -68 -68 -89 -93 -100 -121 -6 -14 -10 -37
-9 -50 2 -15 -1 -21 -8 -17 -6 4 -11 0 -11 -9 0 -9 -8 -30 -17 -46 -13 -22
-15 -32 -6 -37 7 -4 15 -44 18 -92 5 -62 11 -87 23 -96 14 -10 15 -16 5 -32
-10 -17 -7 -22 17 -40 17 -13 30 -34 34 -55 4 -22 15 -39 31 -47 14 -7 25 -19
25 -27 0 -28 27 -6 50 42 14 30 17 38 19 63 1 17 21 15 21 -3 0 -8 5 -15 11
-15 5 0 8 4 5 9 -3 5 1 26 10 46 12 30 19 36 36 32 11 -3 31 1 44 10 29 19 81
11 118 -18 29 -23 35 -63 10 -77 -14 -8 -15 -14 -4 -46 9 -27 9 -40 1 -50 -13
-15 -6 -42 14 -49 10 -4 10 -13 1 -41 -6 -22 -16 -34 -23 -31 -15 5 -32 -24
-26 -43 3 -7 -3 -24 -12 -38 -9 -14 -15 -40 -14 -57 4 -56 0 -67 -26 -77 -15
-6 -25 -17 -25 -30 0 -11 -4 -20 -10 -20 -5 0 -7 7 -4 15 7 18 -17 20 -34 3
-10 -10 -16 -7 -28 10 -8 12 -19 20 -24 17 -15 -9 12 -45 33 -45 12 0 16 -4
10 -12 -4 -7 -8 -26 -9 -43 -3 -44 -3 -45 -15 -45 -5 0 -7 4 -4 10 3 5 2 10
-4 10 -6 0 -15 -9 -21 -21 -8 -15 -19 -20 -41 -17 -16 1 -33 -3 -38 -10 -6
-10 -14 -9 -39 4 -36 17 -56 11 -49 -17 7 -25 -6 -24 -54 7 -60 37 -60 22 0
-32 30 -27 50 -52 47 -60 -3 -9 2 -14 14 -14 16 0 20 -7 20 -30 0 -32 -9 -37
-28 -18 -17 17 -28 2 -12 -17 10 -12 10 -18 0 -30 -7 -8 -19 -15 -26 -15 -17
0 -19 -30 -1 -30 22 -1 90 -67 82 -80 -6 -9 -9 -9 -16 1 -7 11 -9 10 -9 -3 0
-9 -6 -19 -12 -21 -7 -3 467 -6 1054 -6 658 -1 1068 2 1068 8 0 16 -152 115
-225 147 -38 17 -103 41 -143 53 -40 12 -114 40 -164 62 -49 22 -120 48 -156
58 -37 10 -116 42 -175 70 -60 28 -114 51 -120 51 -17 1 -39 20 -66 58 -20 28
-22 41 -17 80 12 85 83 244 163 363 92 136 125 224 143 385 11 102 18 134 52
244 41 132 49 176 49 267 0 53 4 93 10 93 34 0 46 127 33 363 -4 68 -2 107 4
107 16 0 52 83 52 121 0 19 -9 49 -20 67 -11 18 -20 41 -20 52 0 10 -4 22 -10
25 -5 3 -10 21 -10 38 0 18 -7 46 -16 62 -9 17 -18 44 -20 60 -2 17 -15 68
-29 114 -14 46 -25 91 -25 101 0 10 -4 20 -8 22 -16 6 -62 99 -56 110 4 7 2 8
-4 4 -8 -5 -12 1 -12 16 0 14 -14 38 -35 58 -21 20 -35 44 -36 59 0 15 -3 20
-6 14 -6 -17 -33 -17 -33 0 0 17 -30 44 -99 91 -38 25 -65 36 -95 37 -30 2
-33 3 -13 6 44 7 34 33 -14 33 -22 0 -48 4 -58 9 -11 6 -43 6 -88 -1 -70 -11
-70 -11 -116 20 -25 18 -49 32 -52 32 -4 0 -20 9 -36 21 -28 20 -128 38 -140
25z m799 -386 c12 -19 11 -20 -8 -8 -11 7 -20 16 -20 20 0 15 15 8 28 -12z
m-804 -345 c-4 -8 -11 -15 -16 -15 -6 0 -5 6 2 15 7 8 14 15 16 15 2 0 1 -7
-2 -15z m193 -257 c-3 -8 -6 -5 -6 6 -1 11 2 17 5 13 3 -3 4 -12 1 -19z m-274
-1185 c26 -3 50 -9 52 -13 3 -4 -2 -21 -10 -36 -17 -33 -20 -80 -5 -89 14 -9
12 -45 -2 -46 -40 -1 -112 -12 -176 -25 -40 -9 -80 -13 -88 -10 -20 8 -17 49
7 93 40 71 69 89 69 42 0 -12 5 -19 13 -16 6 2 12 20 12 40 1 45 31 81 60 72
11 -4 41 -9 68 -12z m20 -316 c-9 -15 -26 -1 -30 23 -3 24 -3 24 15 5 11 -11
17 -24 15 -28z m76 10 c15 -19 -10 -53 -33 -44 -23 9 -21 57 3 57 10 0 24 -6
30 -13z m-109 -439 c0 -7 -5 -20 -10 -28 -8 -12 -10 -9 -10 13 0 15 5 27 10
27 6 0 10 -6 10 -12z m-30 -39 c0 -11 -6 -19 -14 -19 -8 0 -16 -3 -19 -7 -2
-5 -2 -2 0 5 1 8 3 25 3 39 0 21 2 24 15 13 8 -7 15 -21 15 -31z"/>
<path d="M2710 3141 c0 -6 4 -13 10 -16 6 -3 7 1 4 9 -7 18 -14 21 -14 7z"/>
<path d="M1755 2813 c11 -3 25 -9 32 -15 7 -5 13 -5 17 0 6 10 -27 23 -54 21
-8 -1 -6 -3 5 -6z"/>
<path d="M1831 2811 c-8 -5 -9 -11 -3 -15 5 -3 12 1 16 9 6 17 6 18 -13 6z"/>
<path d="M1867 2804 c-13 -13 -7 -24 14 -24 11 0 19 5 17 12 -5 14 -22 21 -31
12z"/>
<path d="M2066 2491 c-4 -5 -2 -12 3 -15 5 -4 12 -2 15 3 4 5 2 12 -3 15 -5 4
-12 2 -15 -3z"/>
<path d="M1955 1750 c-3 -5 -1 -10 4 -10 6 0 11 5 11 10 0 6 -2 10 -4 10 -3 0
-8 -4 -11 -10z"/>
<path d="M1405 837 c-4 -10 -5 -21 -1 -24 10 -10 18 4 13 24 -4 17 -4 17 -12
0z"/>
<path d="M815 793 c-88 -19 -150 -37 -207 -59 -62 -23 -68 -29 -78 -62 -5 -20
-10 -47 -10 -60 0 -12 -6 -33 -14 -45 -8 -12 -17 -45 -21 -72 -3 -28 -11 -57
-16 -65 -7 -11 -8 -7 -3 13 9 38 -9 34 -29 -8 -9 -19 -21 -35 -27 -35 -5 0
-10 -7 -10 -15 0 -25 -83 -125 -104 -125 -18 0 -18 2 5 26 l24 27 -25 -13
c-14 -7 -31 -18 -39 -23 -7 -6 -25 -13 -38 -15 -36 -4 -93 -50 -86 -68 4 -11
-6 -14 -50 -14 -71 0 -87 -7 -87 -35 0 -17 7 -25 23 -28 l22 -4 -22 -2 c-21
-1 -23 -6 -23 -56 l0 -55 505 0 c278 0 505 2 505 4 0 2 -24 22 -52 44 -29 23
-71 64 -93 93 -22 28 -45 57 -51 63 -21 22 -82 161 -94 213 -17 75 -6 125 41
179 22 25 48 62 58 82 21 41 37 123 24 121 -4 -1 -17 -3 -28 -6z m-348 -430
c-3 -10 -5 -4 -5 12 0 17 2 24 5 18 2 -7 2 -21 0 -30z m-81 -90 c-10 -10 -19
5 -10 18 6 11 8 11 12 0 2 -7 1 -15 -2 -18z"/>
<path d="M968 523 c7 -3 16 -2 19 1 4 3 -2 6 -13 5 -11 0 -14 -3 -6 -6z"/>
<path d="M1375 400 c3 -5 13 -10 21 -10 8 0 14 5 14 10 0 6 -9 10 -21 10 -11
0 -17 -4 -14 -10z"/>
</g>
</svg>
